<?xml version="1.0" standalone="no"?>
<!DOCTYPE svg PUBLIC "-//W3C//DTD SVG 20010904//EN"
 "http://www.w3.org/TR/2001/REC-SVG-20010904/DTD/svg10.dtd">
<svg version="1.0" xmlns="http://www.w3.org/2000/svg"
 width="1632.000000pt" height="1632.000000pt" viewBox="0 0 1632.000000 1632.000000"
 preserveAspectRatio="xMidYMid meet">
<metadata>
Created by potrace 1.14, written by Peter Selinger 2001-2017
</metadata>
<g transform="translate(0.000000,1632.000000) scale(0.100000,-0.100000)"
fill="#000000" stroke="none">
<path d="M7947 11963 c-2 -1 -36 -5 -77 -8 -86 -7 -116 -10 -220 -25 -111 -17
-133 -20 -150 -25 -8 -2 -31 -7 -50 -10 -54 -9 -285 -68 -320 -82 -8 -3 -23
-8 -33 -10 -10 -2 -67 -21 -125 -44 -59 -22 -111 -42 -117 -43 -29 -6 -376
-173 -385 -184 -3 -4 -27 -18 -55 -32 -27 -14 -54 -28 -60 -33 -33 -24 -210
-137 -216 -137 -4 0 -9 -3 -11 -7 -1 -5 -21 -21 -43 -38 -48 -35 -45 -33 -120
-92 -33 -26 -65 -52 -71 -58 -7 -5 -43 -37 -80 -70 -174 -153 -401 -402 -519
-569 -11 -16 -26 -34 -32 -41 -7 -8 -13 -17 -13 -22 0 -5 -11 -22 -25 -38 -31
-37 -95 -135 -89 -135 3 0 0 -6 -6 -12 -19 -23 -78 -119 -90 -148 l-12 -28
-146 4 c-252 7 -557 18 -792 29 -69 4 -163 8 -210 10 -270 12 -466 22 -580 30
-41 3 -120 7 -175 10 -55 3 -134 7 -175 10 -41 3 -108 7 -148 10 -40 2 -77 7
-82 10 -5 3 -11 1 -15 -5 -4 -6 -11 -7 -18 -3 -6 3 -36 8 -66 9 -31 1 -96 5
-146 9 -49 4 -119 8 -155 11 -36 2 -96 6 -135 9 -117 8 -227 17 -280 20 -27 2
-86 7 -130 10 -44 3 -100 8 -125 10 -25 3 -85 7 -135 11 -49 3 -110 8 -135 10
-55 6 -109 10 -215 18 -112 9 -182 15 -240 21 -91 10 -129 14 -215 21 -47 3
-98 8 -115 10 -27 2 -95 9 -210 19 -22 2 -69 6 -105 10 -36 4 -82 8 -102 9
-21 0 -38 3 -38 6 0 3 -21 5 -48 6 -26 0 -56 3 -67 5 -18 4 -20 -1 -19 -51 1
-81 15 -193 30 -242 3 -10 8 -30 10 -45 6 -33 55 -182 78 -235 9 -21 17 -41
18 -45 1 -9 43 -87 79 -148 41 -69 107 -161 142 -199 19 -20 32 -36 30 -36 -3
0 10 -12 28 -27 32 -27 36 -28 153 -28 l121 0 17 -35 c9 -19 17 -42 18 -50 0
-8 7 -24 15 -34 8 -10 12 -22 10 -27 -3 -4 -1 -10 5 -14 5 -3 10 -15 10 -26 0
-10 5 -19 12 -19 6 0 9 -2 6 -5 -10 -10 109 -279 126 -285 8 -3 447 -5 976 -4
l960 1 0 -209 0 -208 -42 -1 c-24 0 -119 0 -211 0 l-168 0 6 -37 c7 -47 14
-89 20 -127 3 -16 7 -48 10 -70 3 -22 8 -51 11 -65 3 -14 7 -38 10 -55 2 -16
6 -42 9 -57 l5 -28 -138 0 -138 0 0 -467 1 -468 320 0 320 -1 2 -979 c2 -539
3 -988 3 -997 0 -17 39 -18 673 -18 l673 0 -1 983 c0 540 1 989 3 997 3 13 38
15 244 15 l240 -1 14 -39 c7 -22 14 -42 14 -45 1 -12 43 -136 50 -145 4 -5 10
-22 13 -36 4 -14 14 -43 24 -65 9 -21 17 -41 18 -44 3 -10 26 -63 51 -118 14
-31 33 -73 42 -92 8 -19 25 -48 36 -65 12 -16 20 -32 20 -35 -1 -3 8 -23 19
-45 12 -22 20 -43 19 -47 -1 -5 2 -8 6 -8 5 0 17 -18 27 -40 10 -22 21 -40 24
-40 3 0 13 -15 21 -32 7 -18 18 -37 22 -43 5 -5 23 -32 40 -60 17 -27 40 -60
51 -72 11 -13 16 -23 11 -23 -5 0 -4 -4 1 -8 6 -4 29 -32 50 -62 47 -65 46
-64 128 -165 116 -145 285 -321 421 -440 38 -33 77 -68 87 -77 11 -10 21 -18
24 -18 5 0 51 -39 81 -67 7 -7 16 -13 19 -13 4 0 22 -12 40 -28 17 -15 42 -34
55 -42 12 -8 40 -27 61 -43 21 -15 41 -27 43 -27 2 0 31 -18 64 -40 33 -22 63
-40 66 -40 4 0 16 -9 28 -20 12 -10 25 -17 29 -14 4 2 11 0 14 -6 8 -13 147
-85 158 -82 4 1 7 -2 7 -8 0 -5 4 -10 9 -10 5 0 57 -23 115 -50 58 -28 112
-50 119 -50 7 0 17 -4 22 -8 6 -5 39 -19 75 -31 36 -12 74 -26 85 -31 11 -5
38 -14 60 -20 22 -6 47 -14 55 -17 8 -3 24 -8 35 -10 11 -2 31 -7 45 -13 24
-9 170 -45 220 -54 14 -3 50 -10 80 -16 30 -6 73 -13 95 -15 22 -3 51 -7 65
-10 30 -6 101 -14 195 -22 90 -7 492 -6 570 1 111 11 150 16 175 20 14 3 43 7
65 10 22 3 54 8 70 11 17 3 44 8 60 11 97 18 316 75 420 108 6 2 13 4 18 5 4
0 20 7 37 16 16 8 37 17 47 18 16 4 50 16 93 34 8 3 17 7 20 8 3 0 27 11 54
23 27 12 50 22 52 22 2 0 40 18 84 39 44 22 80 37 80 33 0 -4 4 -2 8 4 4 6 41
28 82 49 41 22 86 47 100 56 14 9 67 42 118 74 51 32 99 64 107 71 7 8 18 14
23 14 5 0 23 14 40 30 18 17 36 30 42 30 5 0 10 4 10 9 0 5 8 12 18 15 9 3 31
18 48 33 17 16 63 55 104 88 74 60 360 337 360 348 0 3 10 17 23 30 68 71 196
236 291 376 76 112 194 308 196 326 1 6 7 17 14 25 35 40 236 499 236 538 0 5
7 22 15 39 8 16 17 40 19 54 2 13 5 25 7 27 1 1 2 5 3 10 12 50 -4 47 266 47
l250 0 1 -35 c4 -291 2 -1000 -3 -1000 -4 0 -5 -7 -2 -15 10 -24 10 -465 1
-465 -5 0 -5 -5 -1 -11 9 -16 11 -149 1 -149 -5 0 -5 -5 -1 -11 4 -6 7 -78 6
-160 l0 -149 674 0 674 0 2 997 3 997 320 0 320 1 0 465 0 465 -138 3 c-125 2
-138 4 -133 20 4 16 17 97 22 135 1 9 2 18 4 20 1 1 3 13 4 27 6 57 23 165 26
165 1 0 3 17 5 37 l4 37 -192 0 c-106 0 -200 0 -210 1 -16 0 -17 15 -15 208
l3 207 969 1 969 0 17 35 c10 19 54 124 99 234 45 110 85 207 90 215 6 12 32
15 122 16 143 2 132 0 160 27 23 20 128 151 157 193 53 80 122 211 122 233 0
5 3 11 8 13 18 8 95 263 108 357 3 25 8 48 9 51 2 3 7 48 10 99 6 74 5 92 -5
86 -7 -4 -38 -9 -69 -10 -53 -2 -143 -11 -221 -20 -19 -3 -64 -7 -100 -10 -60
-5 -90 -8 -210 -20 -42 -5 -110 -11 -220 -20 -25 -2 -72 -7 -105 -10 -33 -3
-85 -8 -115 -10 -30 -3 -82 -7 -115 -10 -33 -3 -89 -8 -125 -11 -36 -2 -90 -7
-120 -9 -71 -7 -144 -12 -250 -20 -47 -4 -105 -8 -130 -10 -198 -16 -371 -29
-545 -39 -27 -2 -90 -7 -140 -11 -49 -4 -119 -9 -155 -11 -36 -1 -105 -5 -155
-9 -246 -16 -462 -28 -695 -40 -58 -3 -148 -7 -200 -11 -100 -6 -188 -10 -410
-19 -74 -3 -182 -8 -240 -10 -58 -3 -175 -7 -260 -10 -85 -3 -221 -8 -302 -11
l-146 -5 -43 73 c-64 109 -150 243 -160 246 -5 2 -9 8 -9 14 0 5 -9 22 -20 36
-46 61 -227 290 -255 321 -58 67 -271 277 -335 331 -36 30 -67 57 -70 60 -12
13 -189 148 -230 175 -25 16 -47 32 -50 35 -9 9 -140 93 -200 128 -154 90
-330 175 -480 233 -47 18 -89 36 -95 41 -5 4 -17 8 -27 8 -10 0 -35 7 -56 17
-20 9 -41 15 -45 14 -4 -1 -16 3 -25 8 -18 10 -262 75 -317 84 -16 3 -68 13
-114 21 -47 9 -105 18 -130 21 -25 3 -64 8 -86 11 -91 11 -191 16 -383 18
-112 1 -204 1 -205 -1z m-3352 -3122 c-3 -25 -10 -73 -15 -106 -5 -33 -12 -87
-15 -120 -4 -33 -8 -76 -10 -95 -2 -19 -5 -61 -6 -92 l-2 -58 -152 0 c-114 0
-154 3 -157 13 -3 10 -2 457 1 493 1 7 62 10 181 11 l180 1 -5 -47z m7486 36
c1 -7 2 -123 3 -260 l1 -247 -165 2 c-157 3 -165 4 -166 23 -4 70 -15 205 -19
235 -3 19 -7 53 -9 75 -3 22 -7 51 -10 65 -2 14 -7 46 -10 71 l-7 46 191 1
c138 0 190 -3 191 -11z m-301 -903 c0 -8 -5 -12 -10 -9 -6 4 -8 11 -5 16 9 14
15 11 15 -7z"/>
</g>
</svg>
