<svg width="24" height="25" viewBox="0 0 24 25" fill="none" xmlns="http://www.w3.org/2000/svg">
<path d="M12 0.333496C8.852 0.333496 6 2.8865 6 6.0355C6 10.7175 10.783 11.2125 12 18.3335C13.217 11.2125 18 10.7175 18 6.0355C18 2.8865 15.149 0.333496 12 0.333496ZM12 8.3335C10.895 8.3335 10 7.4385 10 6.3335C10 5.2285 10.895 4.3335 12 4.3335C13.105 4.3335 14 5.2285 14 6.3335C14 7.4385 13.105 8.3335 12 8.3335ZM24 24.3335L17.293 21.9065L12 24.3335L6.419 21.9065L0 24.3335L4 15.3335L7.96 13.7495C8.34 14.2655 8.701 14.8295 9.021 15.4785L5.498 16.8885L3.773 20.7685L6.445 19.7585L7.951 17.0715L7.316 20.1155L11.505 21.9045L12 19.8835L12.465 21.9075L16.615 20.0175L15.997 16.9845L17.569 19.8805L20.301 20.8695L18.562 16.8915L14.981 15.4765C15.3 14.8265 15.662 14.2615 16.043 13.7455L20.064 15.3335L24 24.3335V24.3335Z" fill="#F52242"/>
</svg>
