<svg width="30" height="31" viewBox="0 0 30 31" fill="none" xmlns="http://www.w3.org/2000/svg">
<path d="M22.2913 8.57725V10.4222C22.2913 10.7185 22.05 10.9585 21.7475 10.9585H19.9163C19.6187 10.9585 19.3737 10.7185 19.3737 10.4222V8.57725C19.3737 8.281 19.6175 8.04225 19.9163 8.04225H21.7475C22.05 8.04225 22.2913 8.281 22.2913 8.57725ZM15 17.9497C16.4013 17.9497 17.535 16.8147 17.535 15.4135C17.535 14.0122 16.4013 12.8772 15 12.8772C13.5988 12.8772 12.465 14.0122 12.465 15.4135C12.465 16.8147 13.5988 17.9497 15 17.9497ZM30 15.3335C30 23.6172 23.2837 30.3335 15 30.3335C6.71625 30.3335 0 23.6172 0 15.3335C0 7.04975 6.71625 0.333496 15 0.333496C23.2837 0.333496 30 7.04975 30 15.3335ZM23.75 13.146H18.8088C19.2038 13.8122 19.4438 14.5822 19.4438 15.4122C19.4438 17.8722 17.4487 19.8672 14.99 19.8672C12.5287 19.8672 10.535 17.8722 10.535 15.4122C10.535 14.581 10.7738 13.811 11.1713 13.146H6.25V20.641C6.25 22.5422 7.8375 24.0835 9.73875 24.0835H20.3063C22.2075 24.0835 23.75 22.5422 23.75 20.641V13.146ZM14.9888 18.8447C16.8825 18.8447 18.42 17.3047 18.42 15.4122C18.42 14.3847 17.965 13.4622 17.2487 12.8335C16.9962 12.6122 16.7125 12.4285 16.4025 12.2872C15.97 12.091 15.4912 11.981 14.9875 11.981C14.4812 11.981 14.0025 12.091 13.5713 12.2872C13.2638 12.4272 12.9788 12.6122 12.7275 12.8335C12.01 13.4622 11.555 14.386 11.555 15.4122C11.5563 17.3047 13.0975 18.8447 14.9888 18.8447ZM23.75 10.026C23.75 8.12475 22.2075 6.5835 20.3063 6.5835H11.3538V10.2297H10.625V6.5835H9.89625V10.2297H9.16625V6.63975C8.91375 6.681 8.67 6.7435 8.4375 6.836V10.2297H7.70875V7.2385C6.83125 7.8635 6.25 8.876 6.25 10.026V12.4172H11.6988C12.55 11.4822 13.74 10.9585 14.9888 10.9585C16.2437 10.9585 17.4312 11.486 18.2775 12.4172H23.75V10.026Z" fill="#F52242"/>
</svg>
