<svg width="30" height="30" viewBox="0 0 30 30" fill="none" xmlns="http://www.w3.org/2000/svg">
<path d="M15.0001 0C6.7164 0 9.15527e-05 6.71632 9.15527e-05 15C9.15527e-05 23.2836 6.7164 30 15.0001 30C23.2837 30 29.9999 23.2835 29.9999 15C30 6.71632 23.2837 0 15.0001 0ZM22.921 21.8867L21.72 23.0879C21.5056 23.302 20.8777 23.4357 20.8576 23.4357C17.0581 23.4688 13.3997 21.9764 10.7118 19.2882C8.01653 16.5913 6.52238 12.92 6.56251 9.10767C6.56251 9.10594 6.70001 8.49606 6.91425 8.28386L8.11521 7.08272C8.55468 6.6412 9.39889 6.44168 9.99028 6.63953L10.2429 6.7238C10.8326 6.92147 11.4517 7.57345 11.6146 8.17412L12.2187 10.3914C12.3816 10.9938 12.1619 11.8508 11.7225 12.2903L10.9206 13.0923C11.7079 16.0071 13.9949 18.2945 16.9101 19.0837L17.7117 18.2815C18.1532 17.84 19.0099 17.6204 19.611 17.7831L21.828 18.3894C22.4288 18.5545 23.0807 19.1697 23.2783 19.7591L23.3625 20.0154C23.5584 20.6051 23.3604 21.4492 22.921 21.8867Z" fill="#F52242"/>
</svg>
