<svg width="24" height="25" viewBox="0 0 24 25" fill="none" xmlns="http://www.w3.org/2000/svg">
<path d="M11 6.3335V14.3335H18V12.3335H13V6.3335H11ZM21.854 14.0165L23.852 14.1755C23.72 15.0295 23.501 15.8515 23.2 16.6355L21.4 15.7305C21.6 15.1795 21.753 14.6075 21.854 14.0165ZM19.306 21.8425L17.893 20.3995C17.407 20.7555 16.887 21.0675 16.338 21.3325L17.007 23.2315C17.828 22.8545 18.598 22.3875 19.306 21.8425ZM20.532 17.5335C20.197 18.0795 19.813 18.5905 19.383 19.0615L20.787 20.4945C21.37 19.8675 21.886 19.1785 22.326 18.4365L20.532 17.5335ZM0 12.3335C0 18.9605 5.375 24.3335 12.004 24.3335C13.085 24.3335 14.128 24.1775 15.124 23.9095L14.459 22.0155C13.672 22.2155 12.852 22.3335 12.004 22.3335C6.488 22.3335 2.001 17.8475 2.001 12.3335C2.001 6.8195 6.488 2.3335 12.004 2.3335C14.239 2.3335 16.297 3.0775 17.963 4.3225L15.913 6.3715L22.928 7.7255L21.573 0.712496L19.389 2.8955C17.353 1.2975 14.794 0.333496 12.004 0.333496C5.375 0.333496 0 5.7065 0 12.3335ZM23.773 9.9745H21.697C21.86 10.6355 21.958 11.3185 21.985 12.0215L24 12.1825C23.99 11.4275 23.915 10.6885 23.773 9.9745Z" fill="#F52242"/>
</svg>
