<svg width="32" height="31" viewBox="0 0 32 31" fill="none" xmlns="http://www.w3.org/2000/svg">
<path fill-rule="evenodd" clip-rule="evenodd" d="M9.6276 10.2557C9.6276 6.81673 12.531 4.02891 16.1125 4.02891C19.694 4.02891 22.5975 6.81673 22.5975 10.2557H9.6276ZM6.38516 10.2557C6.38516 5.09726 10.7402 0.915527 16.1125 0.915527C21.4847 0.915527 25.8398 5.09726 25.8398 10.2557H28.2488C30.334 10.2557 31.877 12.1183 31.4082 14.0691L28.0411 28.0794C27.7016 29.4921 26.3915 30.4927 24.8817 30.4927H7.34337C5.83349 30.4927 4.52346 29.4921 4.18396 28.0794L0.816798 14.0691C0.347927 12.1182 1.89104 10.2557 3.97622 10.2557H6.38516ZM26.2131 13.3691C27.2544 13.3691 28.0249 14.3007 27.7904 15.2763L25.1716 26.1732C25.0019 26.8791 24.3479 27.3793 23.5943 27.3793H8.63087C7.87718 27.3793 7.22318 26.8791 7.05348 26.1732L4.43458 15.2763C4.20012 14.3007 4.97063 13.3691 6.01197 13.3691H26.2131Z" fill="#F52242"/>
</svg>
