<svg width="102" height="48" viewBox="0 0 102 48" fill="none" xmlns="http://www.w3.org/2000/svg">
<path d="M50.9415 47.5492C63.4019 47.5492 73.5031 36.9515 73.5031 23.8785C73.5031 10.8055 63.4019 0.207691 50.9415 0.207691C38.4812 0.207691 28.38 10.8055 28.38 23.8785C28.38 36.9515 38.4812 47.5492 50.9415 47.5492Z" fill="#F52242"/>
<path d="M50.9721 25.0318V25.1564H50.9919L51.0099 25.0941L51.0279 25.0337H50.9721V25.0318Z" fill="black"/>
<path d="M50.9703 25.0318V25.0941H51.0297V25.0318H50.9703Z" fill="black"/>
<path d="M52.2837 25.0941L52.2657 25.1564H52.2747L52.2657 25.2187L52.3017 25.0941H52.2837ZM49.6857 25.0318V25.0941H49.7451V25.0318H49.6857Z" fill="black"/>
<path d="M49.7019 25.0318V25.0941H49.7613V25.0318H49.7019Z" fill="black"/>
<path d="M42.2786 25.1526L42.2876 25.0903L42.2696 25.1526H42.2786ZM39.6914 25.028V25.0903H39.7507V25.028H39.6914Z" fill="black"/>
<path d="M76.531 11.8411C67.6504 12.2356 59.1007 12.3545 51.0603 12.23H50.9415C42.8549 12.3558 34.3646 12.2262 25.4708 11.8411C16.5685 11.4428 8.06745 10.8048 0 9.97991C0.036215 11.3961 0.373689 12.786 0.987741 14.0477C1.43784 15.0013 2.04719 15.8624 2.78691 16.5904H4.36117C4.78578 17.7116 5.21218 18.7083 5.63678 19.7049H17.8117V22.3212H15.1795C15.3253 23.1933 15.471 24.1899 15.6149 25.062H13.8931V30.9136H17.9305V43.3719H26.356V30.9136H75.635V43.3719H84.0659V30.9136H88.1015V25.062H86.3815C86.5254 24.1899 86.6711 23.1933 86.8169 22.3212H84.1901V19.7049H96.3596C96.786 18.7083 97.2124 17.7116 97.637 16.5904H99.2095C99.9539 15.8651 100.568 15.0051 101.021 14.0515C101.633 12.7851 101.967 11.3915 102 9.97236C93.9343 10.7972 85.4333 11.4428 76.531 11.8411ZM47.2604 25.1866H47.1417V25.062H31.0536L31.0266 25.1866L31.0176 25.2187V25.1866L31.0356 25.062H28.497V25.1923H28.3854V25.0677H28.5042V24.9412H28.4574L28.8028 23.8086L29.1357 22.6949H26.4801V19.4558H47.2604V25.1866ZM73.6218 25.2187H73.5102V25.0941H73.629L73.6218 25.2187ZM75.5217 22.6949H72.8715L73.0658 23.3518L73.2026 23.8011L73.5498 24.9336H73.503V25.0582H70.9644L70.9824 25.1828V25.2149L70.9734 25.1828L70.9446 25.0582H54.7414V19.452H75.5217V22.6949Z" fill="black"/>
<path d="M51.0189 25.0941L51.0009 25.1545H50.9829L51.0009 25.0941H51.0189Z" fill="black"/>
<path d="M51.0297 25.0299V25.0941L51.0261 25.1545H50.9703V25.0299H51.0297Z" fill="black"/>
<path d="M51.0297 25.0299V25.0941L51.0261 25.1545H50.9703V25.0299H51.0297Z" fill="black"/>
<path d="M51.0189 25.0941L51.0009 25.1545H50.9829L51.0009 25.0941H51.0189Z" fill="black"/>
</svg>
